<svg width="44" height="48" viewBox="0 0 44 48" fill="none" xmlns="http://www.w3.org/2000/svg">
<path d="M38 0V5.33333H32.6667V0H11.3333V5.33333H6V0H0.666672V48H6V42.6667H11.3333V48H32.6667V42.6667H38V48H43.3333V0H38ZM11.3333 37.3333H6V32H11.3333V37.3333ZM11.3333 26.6667H6V21.3333H11.3333V26.6667ZM11.3333 16H6V10.6667H11.3333V16ZM27.3333 42.6667H16.6667V5.33333H27.3333V42.6667ZM38 37.3333H32.6667V32H38V37.3333ZM38 26.6667H32.6667V21.3333H38V26.6667ZM38 16H32.6667V10.6667H38V16Z" fill="#2EFF7B"/>
</svg>
