<svg width="54" height="54" viewBox="0 0 54 54" fill="none" xmlns="http://www.w3.org/2000/svg">
<path d="M49.8533 34.6267L53.6667 30.8133L49.8533 27L40.3333 36.52L17.48 13.6667L27 4.14667L23.1867 0.333336L19.3733 4.14667L15.56 0.333336L9.85333 6.04L6.03999 2.22667L2.22666 6.04L6.03999 9.85334L0.333328 15.56L4.14666 19.3733L0.333328 23.1867L4.14666 27L13.6667 17.48L36.52 40.3333L27 49.8533L30.8133 53.6667L34.6267 49.8533L38.44 53.6667L44.1467 47.96L47.96 51.7733L51.7733 47.96L47.96 44.1467L53.6667 38.44L49.8533 34.6267Z" fill="#2EFF7B"/>
</svg>
