<svg width="64" height="55" viewBox="0 0 64 55" fill="none" xmlns="http://www.w3.org/2000/svg">
<path d="M41.3333 10.6667C44.2667 10.6667 46.6667 8.26667 46.6667 5.33333C46.6667 2.4 44.2667 0 41.3333 0C38.4 0 36 2.4 36 5.33333C36 8.26667 38.4 10.6667 41.3333 10.6667ZM13.3333 54.6667C20.8 54.6667 26.6667 48.8 26.6667 41.3333C26.6667 33.8667 20.8 28 13.3333 28C5.86667 28 0 33.8667 0 41.3333C0 48.8 5.86667 54.6667 13.3333 54.6667ZM13.3333 32C18.4 32 22.6667 36.2667 22.6667 41.3333C22.6667 46.4 18.4 50.6667 13.3333 50.6667C8.26667 50.6667 4 46.4 4 41.3333C4 36.2667 8.26667 32 13.3333 32ZM20.8 25.8667L29.3333 33.3333V46.6667H34.6667V30.1333L28.8 24L35.2 17.6L37.3333 19.7333C40.8 23.2 45.3333 25.3333 50.9333 25.3333V20C46.9333 20 43.7333 18.4 41.3333 16L36.2667 10.9333C34.9333 9.86667 33.6 9.33333 32 9.33333C30.4 9.33333 29.0667 9.86667 28.2667 10.9333L20.8 18.4C19.7333 19.4667 19.2 20.8 19.2 22.1333C19.2 23.7333 19.7333 25.0667 20.8 25.8667ZM50.6667 28C43.2 28 37.3333 33.8667 37.3333 41.3333C37.3333 48.8 43.2 54.6667 50.6667 54.6667C58.1333 54.6667 64 48.8 64 41.3333C64 33.8667 58.1333 28 50.6667 28ZM50.6667 50.6667C45.6 50.6667 41.3333 46.4 41.3333 41.3333C41.3333 36.2667 45.6 32 50.6667 32C55.7333 32 60 36.2667 60 41.3333C60 46.4 55.7333 50.6667 50.6667 50.6667Z" fill="#2EFF7B"/>
</svg>
