<svg width="64" height="64" viewBox="0 0 64 64" fill="none" xmlns="http://www.w3.org/2000/svg">
<path d="M64 28.4444V21.3333H56.8889V14.2222C56.8889 10.3111 53.6889 7.11111 49.7778 7.11111H42.6667V0H35.5556V7.11111H28.4444V0H21.3333V7.11111H14.2222C10.3111 7.11111 7.11111 10.3111 7.11111 14.2222V21.3333H0V28.4444H7.11111V35.5556H0V42.6667H7.11111V49.7778C7.11111 53.6889 10.3111 56.8889 14.2222 56.8889H21.3333V64H28.4444V56.8889H35.5556V64H42.6667V56.8889H49.7778C53.6889 56.8889 56.8889 53.6889 56.8889 49.7778V42.6667H64V35.5556H56.8889V28.4444H64ZM49.7778 49.7778H14.2222V14.2222H49.7778V49.7778ZM42.6667 21.3333H21.3333V42.6667H42.6667V21.3333ZM35.5556 35.5556H28.4444V28.4444H35.5556V35.5556Z" fill="#2EFF7B"/>
</svg>
