<svg width="48" height="44" viewBox="0 0 48 44" fill="none" xmlns="http://www.w3.org/2000/svg">
<path d="M24 11.3333C26.9455 11.3333 29.3333 8.94552 29.3333 6C29.3333 3.05448 26.9455 0.666664 24 0.666664C21.0545 0.666664 18.6667 3.05448 18.6667 6C18.6667 8.94552 21.0545 11.3333 24 11.3333Z" fill="#2EFF7B"/>
<path d="M48 33V27.6667C42.0267 27.6667 36.9067 25.1067 33.0667 20.52L29.4933 16.2533C28.48 15.0267 26.9867 14.3333 25.4133 14.3333H22.6133C21.04 14.3333 19.5467 15.0267 18.5333 16.2533L14.96 20.52C11.0933 25.1067 5.97333 27.6667 0 27.6667V33C7.38667 33 13.84 29.88 18.6667 24.3333V30.3333L8.32 34.4667C6.53333 35.1867 5.33333 36.9467 5.33333 38.8933C5.33333 41.5333 7.46667 43.6667 10.1067 43.6667H16V42.3333C16 38.6533 18.9867 35.6667 22.6667 35.6667H30.6667C31.4133 35.6667 32 36.2533 32 37C32 37.7467 31.4133 38.3333 30.6667 38.3333H22.6667C20.4533 38.3333 18.6667 40.12 18.6667 42.3333V43.6667H37.8933C40.5333 43.6667 42.6667 41.5333 42.6667 38.8933C42.6667 36.9467 41.4667 35.1867 39.68 34.4667L29.3333 30.3333V24.3333C34.16 29.88 40.6133 33 48 33Z" fill="#2EFF7B"/>
</svg>
